# xmcd
#
# Track frame offsets: 
#        150
#        11818
#        27952
#        38639
#        51425
#        63481
#        80048
#        91003
#        111605
#        127774
#        145742
#        162602
#        173343
#        185095
#        198924
#        212335
#        225192
#        240661
#        251999
#        271604
#
# Disc length: 3803 seconds
#
# Revision: 0
# Processed by: cddbd v1.5.2PL0 Copyright (c) Steve Scherf et al.
# Submitted via: ExactAudioCopy v0.99pb5
#
DISCID=0c0ed914
DTITLE=Various Artist - Super Hits Country CD 2
DYEAR=2006
DGENRE=Country
TTITLE0=Johnny Cash Ring of fire
TTITLE1=Waylon Jennings Honky tonk heroes
TTITLE2=The Byrds You're still on my mind
TTITLE3=Johnny Norton North to Alaska
TTITLE4=Tammy Wynette Stand by your man
TTITLE5=Clay Walker Sweet sun angel
TTITLE6=Dolly Parton and Kris Kristofferson Put it off until tomorrow
TTITLE7=Highway Man Desperados waiting for a train
TTITLE8=Merle Haggard and Janie Frickie A place to fall apart
TTITLE9=Rosanne Cash Runaway train
TTITLE10=Andy Griggs This i gotta see
TTITLE11=Tanya Tucker Would you lay with me in a field of stones
TTITLE12=Charlie Rich The most beautiful girl
TTITLE13=Loggins and Messina My music
TTITLE14=Charlie Daniels Layla
TTITLE15=Lyan Anderson Rose garden
TTITLE16=Ricky Van Shelton I am a simple man
TTITLE17=Earl Scruggs Banjo man
TTITLE18=Marty Robbins El Paso
TTITLE19=New Riders of The Purple Sage Louisiana lady
EXTD=
EXTT0=
EXTT1=
EXTT2=
EXTT3=
EXTT4=
EXTT5=
EXTT6=
EXTT7=
EXTT8=
EXTT9=
EXTT10=
EXTT11=
EXTT12=
EXTT13=
EXTT14=
EXTT15=
EXTT16=
EXTT17=
EXTT18=
EXTT19=
PLAYORDER=
